<svg id="icons" xmlns="http://www.w3.org/2000/svg" xmlns:xlink="http://www.w3.org/1999/xlink" style="display: none;">

  <symbol id="settings" viewBox="0 0 64 64">
    <path fill-rule="evenodd" d="M10.000 8.000 L54.000 8.000 C55.105 8.000,56.000 8.895,56.000 10.000 L56.000 14.000 C56.000 15.105,55.105 16.000,54.000 16.000 L10.000 16.000 C8.895 16.000,8.000 15.105,8.000 14.000 L8.000 10.000 C8.000 8.895,8.895 8.000,10.000 8.000 Z"/>
    <path fill-rule="evenodd" d="M10.000 48.000 L54.000 48.000 C55.105 48.000,56.000 48.895,56.000 50.000 L56.000 54.000 C56.000 55.105,55.105 56.000,54.000 56.000 L10.000 56.000 C8.895 56.000,8.000 55.105,8.000 54.000 L8.000 50.000 C8.000 48.895,8.895 48.000,10.000 48.000 Z"/>
    <path fill-rule="evenodd" d="M10.000 28.000 L54.000 28.000 C55.105 28.000,56.000 28.895,56.000 30.000 L56.000 34.000 C56.000 35.105,55.105 36.000,54.000 36.000 L10.000 36.000 C8.895 36.000,8.000 35.105,8.000 34.000 L8.000 30.000 C8.000 28.895,8.895 28.000,10.000 28.000 Z"/>
  </symbol>

  <symbol id="eye" viewBox="0 0 64 64">
  <path fill-rule="evenodd" d="M32.000 11.000 C49.673 11.000,64.000 26.293,64.000 31.500 C64.000 36.707,49.673 52.000,32.000 52.000 C14.327 52.000,-0.000 36.707,-0.000 31.500 C-0.000 26.293,14.327 11.000,32.000 11.000 ZM32.000 16.000 C40.837 16.000,48.000 23.163,48.000 32.000 C48.000 40.837,40.837 48.000,32.000 48.000 C23.163 48.000,16.000 40.837,16.000 32.000 C16.000 23.163,23.163 16.000,32.000 16.000 Z"/>
  <path fill-rule="evenodd" d="M32.000 24.000 C36.418 24.000,40.000 27.582,40.000 32.000 C40.000 36.418,36.418 40.000,32.000 40.000 C27.582 40.000,24.000 36.418,24.000 32.000 C24.000 27.582,27.582 24.000,32.000 24.000 Z"/>
  </symbol>

  <symbol id="close" viewBox="0 0 64 64">
    <path fill-rule="evenodd" d="M57.415 6.543 C59.497 8.624,59.497 11.998,57.415 14.080 L14.080 57.415 C11.998 59.497,8.624 59.497,6.543 57.415 C4.462 55.334,4.462 51.960,6.543 49.879 L49.879 6.543 C51.960 4.462,55.334 4.462,57.415 6.543 Z"/>
    <path fill-rule="evenodd" d="M57.415 57.415 C55.334 59.497,51.960 59.497,49.879 57.415 L6.543 14.080 C4.462 11.998,4.462 8.624,6.543 6.543 C8.624 4.462,11.998 4.462,14.080 6.543 L57.415 49.879 C59.497 51.960,59.497 55.334,57.415 57.415 Z"/>
  </symbol>

</svg>
