<svg id="icons" xmlns="http://www.w3.org/2000/svg" xmlns:xlink="http://www.w3.org/1999/xlink" style="display: none;">

  <symbol id="settings" viewBox="0 0 64 64">
  <path fill-rule="evenodd" d="M4.000 8.000 L60.000 8.000 C62.209 8.000,64.000 9.791,64.000 12.000 C64.000 14.209,62.209 16.000,60.000 16.000 L4.000 16.000 C1.791 16.000,0.000 14.209,0.000 12.000 C0.000 9.791,1.791 8.000,4.000 8.000 Z"/>
  <path fill-rule="evenodd" d="M4.000 28.000 L60.000 28.000 C62.209 28.000,64.000 29.791,64.000 32.000 C64.000 34.209,62.209 36.000,60.000 36.000 L4.000 36.000 C1.791 36.000,0.000 34.209,0.000 32.000 C0.000 29.791,1.791 28.000,4.000 28.000 Z"/>
  <path fill-rule="evenodd" d="M4.000 48.000 L60.000 48.000 C62.209 48.000,64.000 49.791,64.000 52.000 C64.000 54.209,62.209 56.000,60.000 56.000 L4.000 56.000 C1.791 56.000,0.000 54.209,0.000 52.000 C0.000 49.791,1.791 48.000,4.000 48.000 Z"/>
  </symbol>

  <symbol id="eye" viewBox="0 0 64 64">
    <path fill-rule="evenodd" d="M32.000 11.000 C49.673 11.000,64.000 26.293,64.000 31.500 C64.000 36.707,49.673 52.000,32.000 52.000 C14.327 52.000,-0.000 36.707,-0.000 31.500 C-0.000 26.293,14.327 11.000,32.000 11.000 ZM32.000 16.000 C40.837 16.000,48.000 23.163,48.000 32.000 C48.000 40.837,40.837 48.000,32.000 48.000 C23.163 48.000,16.000 40.837,16.000 32.000 C16.000 23.163,23.163 16.000,32.000 16.000 Z"/>
    <path fill-rule="evenodd" d="M32.000 24.000 C36.418 24.000,40.000 27.582,40.000 32.000 C40.000 36.418,36.418 40.000,32.000 40.000 C27.582 40.000,24.000 36.418,24.000 32.000 C24.000 27.582,27.582 24.000,32.000 24.000 Z"/>
  </symbol>

  <symbol id="close" viewBox="0 0 64 64">
  <path fill-rule="evenodd" d="M58.829 10.832 L37.659 32.002 L58.799 53.142 C60.361 54.704,60.361 57.237,58.799 58.799 C57.237 60.361,54.704 60.361,53.142 58.799 L32.002 37.659 L10.863 58.798 C9.300 60.361,6.765 60.361,5.202 58.798 C3.639 57.235,3.639 54.700,5.202 53.137 L26.341 31.998 L5.201 10.858 C3.639 9.296,3.639 6.763,5.201 5.201 C6.763 3.639,9.296 3.639,10.858 5.201 L31.998 26.341 L53.168 5.171 C54.732 3.607,57.266 3.607,58.829 5.171 C60.393 6.734,60.393 9.268,58.829 10.832 Z"/>
  </symbol>

  <symbol id="picture" viewBox="0 0 128 128">
  <path fill-rule="evenodd" d="M88.000 108.000 L16.000 108.000 C13.791 108.000,12.000 106.209,12.000 104.000 L12.000 52.000 C12.000 49.791,13.791 48.000,16.000 48.000 L32.000 48.000 L32.000 52.000 L18.000 52.000 C16.895 52.000,16.000 52.895,16.000 54.000 L16.000 102.000 C16.000 103.105,16.895 104.000,18.000 104.000 L86.000 104.000 C87.105 104.000,88.000 103.105,88.000 102.000 L88.000 84.000 L92.000 84.000 L92.000 104.000 C92.000 106.209,90.209 108.000,88.000 108.000 Z"/>
  <path fill-rule="evenodd" d="M40.000 20.000 L112.000 20.000 C114.209 20.000,116.000 21.791,116.000 24.000 L116.000 76.000 C116.000 78.209,114.209 80.000,112.000 80.000 L40.000 80.000 C37.791 80.000,36.000 78.209,36.000 76.000 L36.000 24.000 C36.000 21.791,37.791 20.000,40.000 20.000 ZM40.000 24.000 L112.000 24.000 L112.000 74.000 L60.000 57.000 L40.000 72.000 Z"/>
  <path fill-rule="evenodd" d="M94.000 32.000 C97.866 32.000,101.000 35.134,101.000 39.000 C101.000 42.866,97.866 46.000,94.000 46.000 C90.134 46.000,87.000 42.866,87.000 39.000 C87.000 35.134,90.134 32.000,94.000 32.000 Z"/>
  </symbol>

</svg>
