<svg id="icons" xmlns="http://www.w3.org/2000/svg" xmlns:xlink="http://www.w3.org/1999/xlink" style="display: none;">

  <symbol id="settings" viewBox="0 0 64 64">
    <path fill-rule="evenodd" d="M10.000 8.000 L54.000 8.000 C55.105 8.000,56.000 8.895,56.000 10.000 L56.000 14.000 C56.000 15.105,55.105 16.000,54.000 16.000 L10.000 16.000 C8.895 16.000,8.000 15.105,8.000 14.000 L8.000 10.000 C8.000 8.895,8.895 8.000,10.000 8.000 Z"/>
    <path fill-rule="evenodd" d="M10.000 48.000 L54.000 48.000 C55.105 48.000,56.000 48.895,56.000 50.000 L56.000 54.000 C56.000 55.105,55.105 56.000,54.000 56.000 L10.000 56.000 C8.895 56.000,8.000 55.105,8.000 54.000 L8.000 50.000 C8.000 48.895,8.895 48.000,10.000 48.000 Z"/>
    <path fill-rule="evenodd" d="M10.000 28.000 L54.000 28.000 C55.105 28.000,56.000 28.895,56.000 30.000 L56.000 34.000 C56.000 35.105,55.105 36.000,54.000 36.000 L10.000 36.000 C8.895 36.000,8.000 35.105,8.000 34.000 L8.000 30.000 C8.000 28.895,8.895 28.000,10.000 28.000 Z"/>
  </symbol>

  <symbol id="eye" viewBox="0 0 64 64">
    <path fill-rule="evenodd" d="M32.000 11.000 C49.673 11.000,64.000 26.293,64.000 31.500 C64.000 36.707,49.673 52.000,32.000 52.000 C14.327 52.000,-0.000 36.707,-0.000 31.500 C-0.000 26.293,14.327 11.000,32.000 11.000 ZM32.000 16.000 C40.837 16.000,48.000 23.163,48.000 32.000 C48.000 40.837,40.837 48.000,32.000 48.000 C23.163 48.000,16.000 40.837,16.000 32.000 C16.000 23.163,23.163 16.000,32.000 16.000 Z"/>
    <path fill-rule="evenodd" d="M32.000 24.000 C36.418 24.000,40.000 27.582,40.000 32.000 C40.000 36.418,36.418 40.000,32.000 40.000 C27.582 40.000,24.000 36.418,24.000 32.000 C24.000 27.582,27.582 24.000,32.000 24.000 Z"/>
  </symbol>

  <symbol id="close" viewBox="0 0 64 64">
  <path fill-rule="evenodd" d="M39.055 31.984 L58.627 51.556 C60.580 53.509,60.580 56.675,58.627 58.627 C56.675 60.580,53.509 60.580,51.556 58.627 L31.984 39.055 L12.530 58.509 C10.586 60.453,7.435 60.453,5.491 58.509 C3.547 56.565,3.547 53.414,5.491 51.470 L24.945 32.016 L5.373 12.444 C3.420 10.491,3.420 7.325,5.373 5.373 C7.325 3.420,10.491 3.420,12.444 5.373 L32.016 24.945 L51.501 5.460 C53.445 3.516,56.597 3.516,58.540 5.460 C60.484 7.403,60.484 10.555,58.540 12.499 Z"/>
  </symbol>

  <symbol id="picture" viewBox="0 0 128 128">
  <path fill-rule="evenodd" d="M88.000 108.000 L16.000 108.000 C13.791 108.000,12.000 106.209,12.000 104.000 L12.000 52.000 C12.000 49.791,13.791 48.000,16.000 48.000 L32.000 48.000 L32.000 52.000 L18.000 52.000 C16.895 52.000,16.000 52.895,16.000 54.000 L16.000 102.000 C16.000 103.105,16.895 104.000,18.000 104.000 L86.000 104.000 C87.105 104.000,88.000 103.105,88.000 102.000 L88.000 84.000 L92.000 84.000 L92.000 104.000 C92.000 106.209,90.209 108.000,88.000 108.000 Z"/>
  <path fill-rule="evenodd" d="M40.000 20.000 L112.000 20.000 C114.209 20.000,116.000 21.791,116.000 24.000 L116.000 76.000 C116.000 78.209,114.209 80.000,112.000 80.000 L40.000 80.000 C37.791 80.000,36.000 78.209,36.000 76.000 L36.000 24.000 C36.000 21.791,37.791 20.000,40.000 20.000 ZM40.000 24.000 L112.000 24.000 L112.000 74.000 L60.000 57.000 L40.000 72.000 Z"/>
  <path fill-rule="evenodd" d="M94.000 32.000 C97.866 32.000,101.000 35.134,101.000 39.000 C101.000 42.866,97.866 46.000,94.000 46.000 C90.134 46.000,87.000 42.866,87.000 39.000 C87.000 35.134,90.134 32.000,94.000 32.000 Z"/>
  </symbol>

</svg>
