<svg id="icons" xmlns="http://www.w3.org/2000/svg" xmlns:xlink="http://www.w3.org/1999/xlink" style="display: none;">

  <symbol id="settings" viewBox="0 0 64 64">
  <path fill-rule="evenodd" d="M4.000 8.000 L60.000 8.000 C62.209 8.000,64.000 9.791,64.000 12.000 C64.000 14.209,62.209 16.000,60.000 16.000 L4.000 16.000 C1.791 16.000,0.000 14.209,0.000 12.000 C0.000 9.791,1.791 8.000,4.000 8.000 Z"/>
  <path fill-rule="evenodd" d="M4.000 28.000 L60.000 28.000 C62.209 28.000,64.000 29.791,64.000 32.000 C64.000 34.209,62.209 36.000,60.000 36.000 L4.000 36.000 C1.791 36.000,0.000 34.209,0.000 32.000 C0.000 29.791,1.791 28.000,4.000 28.000 Z"/>
  <path fill-rule="evenodd" d="M4.000 48.000 L60.000 48.000 C62.209 48.000,64.000 49.791,64.000 52.000 C64.000 54.209,62.209 56.000,60.000 56.000 L4.000 56.000 C1.791 56.000,0.000 54.209,0.000 52.000 C0.000 49.791,1.791 48.000,4.000 48.000 Z"/>
  </symbol>

  <symbol id="eye" viewBox="0 0 64 64">
    <path fill-rule="evenodd" d="M32.000 11.000 C49.673 11.000,64.000 26.293,64.000 31.500 C64.000 36.707,49.673 52.000,32.000 52.000 C14.327 52.000,-0.000 36.707,-0.000 31.500 C-0.000 26.293,14.327 11.000,32.000 11.000 ZM32.000 16.000 C40.837 16.000,48.000 23.163,48.000 32.000 C48.000 40.837,40.837 48.000,32.000 48.000 C23.163 48.000,16.000 40.837,16.000 32.000 C16.000 23.163,23.163 16.000,32.000 16.000 Z"/>
    <path fill-rule="evenodd" d="M32.000 24.000 C36.418 24.000,40.000 27.582,40.000 32.000 C40.000 36.418,36.418 40.000,32.000 40.000 C27.582 40.000,24.000 36.418,24.000 32.000 C24.000 27.582,27.582 24.000,32.000 24.000 Z"/>
  </symbol>

  <symbol id="close" viewBox="0 0 64 64">
  <path fill-rule="evenodd" d="M58.829 10.832 L37.659 32.002 L58.799 53.142 C60.361 54.704,60.361 57.237,58.799 58.799 C57.237 60.361,54.704 60.361,53.142 58.799 L32.002 37.659 L10.863 58.798 C9.300 60.361,6.765 60.361,5.202 58.798 C3.639 57.235,3.639 54.700,5.202 53.137 L26.341 31.998 L5.201 10.858 C3.639 9.296,3.639 6.763,5.201 5.201 C6.763 3.639,9.296 3.639,10.858 5.201 L31.998 26.341 L53.168 5.171 C54.732 3.607,57.266 3.607,58.829 5.171 C60.393 6.734,60.393 9.268,58.829 10.832 Z"/>
  </symbol>

  <symbol id="back" viewBox="0 0 64 64">
  <path fill-rule="evenodd" d="M51.000 55.003 L20.997 31.000 L51.000 6.997 L51.000 -1.003 L10.996 31.000 L51.000 63.003 Z"/>
  </symbol>

  <symbol id="help" viewBox="0 0 64 64">
    <g id="?">
      <path fill-rule="evenodd" d="M32.142 36.757 L32.222 35.526 C32.369 34.208,32.948 33.058,33.960 32.075 L35.577 30.521 C36.842 29.284,37.727 28.157,38.233 27.141 C38.739 26.126,38.992 25.046,38.992 23.902 C38.992 21.386,38.213 19.439,36.656 18.060 C35.098 16.681,32.908 15.991,30.085 15.991 C27.290 15.991,25.083 16.718,23.465 18.171 C21.848 19.624,21.025 21.635,20.999 24.205 L26.790 24.205 C26.817 23.127,27.126 22.282,27.719 21.669 C28.311 21.056,29.100 20.749,30.085 20.749 C32.162 20.749,33.201 21.887,33.201 24.162 C33.201 24.916,33.001 25.633,32.602 26.313 C32.202 26.993,31.400 27.874,30.195 28.957 C28.990 30.040,28.161 31.140,27.709 32.257 C27.256 33.374,27.030 34.874,27.030 36.757 Z"/>
      <path fill-rule="evenodd" d="M27.339 45.127 C27.932 45.703,28.714 45.991,29.686 45.991 C30.658 45.991,31.440 45.703,32.033 45.127 C32.625 44.551,32.921 43.821,32.921 42.937 C32.921 42.039,32.618 41.299,32.013 40.716 C31.407 40.133,30.631 39.842,29.686 39.842 C28.741 39.842,27.965 40.133,27.359 40.716 C26.753 41.299,26.451 42.039,26.451 42.937 C26.451 43.821,26.747 44.551,27.339 45.127 Z"/>
    </g>
    <g id="Ellipse 1">
      <path fill-rule="evenodd" d="M31.000 0.000 C48.121 0.000,62.000 13.879,62.000 31.000 C62.000 48.121,48.121 62.000,31.000 62.000 C13.879 62.000,0.000 48.121,0.000 31.000 C0.000 13.879,13.879 0.000,31.000 0.000 ZM31.000 6.000 C44.807 6.000,56.000 17.193,56.000 31.000 C56.000 44.807,44.807 56.000,31.000 56.000 C17.193 56.000,6.000 44.807,6.000 31.000 C6.000 17.193,17.193 6.000,31.000 6.000 Z"/>
    </g>
  </symbol>

</svg>
